<mxfile host="app.diagrams.net" modified="2022-03-14T04:11:21.139Z" agent="5.0 (Windows NT 10.0; Win64; x64) AppleWebKit/537.36 (KHTML, like Gecko) Chrome/99.0.4844.51 Safari/537.36" etag="twpXsVKrL3ALg32N--hE" version="16.5.6" type="github">
  <diagram id="FvOqvjP36I1BAgevXdM4" name="Page-1">
    <mxGraphModel dx="1320" dy="1269" grid="1" gridSize="10" guides="1" tooltips="1" connect="1" arrows="1" fold="1" page="1" pageScale="1" pageWidth="1169" pageHeight="827" math="0" shadow="0">
      <root>
        <mxCell id="0" />
        <mxCell id="1" parent="0" />
        <mxCell id="_C1D_wvhEci5P-4jIthu-1" value="&lt;font style=&quot;font-size: 14px&quot;&gt;&lt;b&gt;Red Team&lt;/b&gt;&lt;/font&gt;" style="pointerEvents=1;shadow=0;dashed=0;html=1;strokeColor=none;fillColor=#4495D1;labelPosition=center;verticalLabelPosition=bottom;verticalAlign=top;align=center;outlineConnect=0;shape=mxgraph.veeam.laptop;" vertex="1" parent="1">
          <mxGeometry x="5" y="40" width="90" height="80" as="geometry" />
        </mxCell>
        <mxCell id="_C1D_wvhEci5P-4jIthu-2" value="&lt;font style=&quot;font-size: 14px&quot;&gt;&lt;b&gt;Internet&lt;/b&gt;&lt;/font&gt;" style="html=1;verticalLabelPosition=bottom;align=center;labelBackgroundColor=#ffffff;verticalAlign=top;strokeWidth=2;strokeColor=#0080F0;shadow=0;shape=mxgraph.ios7.icons.cloud;" vertex="1" parent="1">
          <mxGeometry x="10" y="240" width="80" height="60" as="geometry" />
        </mxCell>
        <mxCell id="_C1D_wvhEci5P-4jIthu-3" value="&lt;font&gt;&lt;b style=&quot;font-size: 14px&quot;&gt;Windows 10&lt;/b&gt;&lt;br&gt;&lt;font style=&quot;font-size: 12px&quot;&gt;Hyper-V Host&lt;br&gt;&lt;/font&gt;&lt;/font&gt;" style="sketch=0;outlineConnect=0;gradientColor=none;fontColor=#545B64;strokeColor=none;fillColor=#879196;dashed=0;verticalLabelPosition=bottom;verticalAlign=top;align=center;html=1;fontSize=12;fontStyle=0;aspect=fixed;shape=mxgraph.aws4.illustration_desktop;pointerEvents=1" vertex="1" parent="1">
          <mxGeometry x="260" y="240" width="98.9" height="90" as="geometry" />
        </mxCell>
        <mxCell id="_C1D_wvhEci5P-4jIthu-4" value="" style="fontColor=#0066CC;verticalAlign=top;verticalLabelPosition=bottom;labelPosition=center;align=center;html=1;outlineConnect=0;fillColor=#CCCCCC;strokeColor=#6881B3;gradientColor=none;gradientDirection=north;strokeWidth=2;shape=mxgraph.networks.desktop_pc;" vertex="1" parent="1">
          <mxGeometry x="190" y="240" width="50" height="90" as="geometry" />
        </mxCell>
        <mxCell id="_C1D_wvhEci5P-4jIthu-5" value="" style="fontColor=#0066CC;verticalAlign=top;verticalLabelPosition=bottom;labelPosition=center;align=center;html=1;outlineConnect=0;fillColor=#CCCCCC;strokeColor=#6881B3;gradientColor=none;gradientDirection=north;strokeWidth=2;shape=mxgraph.networks.desktop_pc;" vertex="1" parent="1">
          <mxGeometry x="530" y="40" width="50" height="90" as="geometry" />
        </mxCell>
        <mxCell id="_C1D_wvhEci5P-4jIthu-6" value="&lt;font&gt;&lt;span style=&quot;font-weight: bold ; font-size: 14px&quot;&gt;Capstone&lt;/span&gt;&lt;br&gt;192.168.1.105/24&lt;br&gt;&lt;/font&gt;" style="sketch=0;outlineConnect=0;gradientColor=none;fontColor=#545B64;strokeColor=none;fillColor=#879196;dashed=0;verticalLabelPosition=bottom;verticalAlign=top;align=center;html=1;fontSize=12;fontStyle=0;aspect=fixed;shape=mxgraph.aws4.illustration_desktop;pointerEvents=1" vertex="1" parent="1">
          <mxGeometry x="600" y="40" width="100" height="91" as="geometry" />
        </mxCell>
        <mxCell id="_C1D_wvhEci5P-4jIthu-7" value="" style="fontColor=#0066CC;verticalAlign=top;verticalLabelPosition=bottom;labelPosition=center;align=center;html=1;outlineConnect=0;fillColor=#CCCCCC;strokeColor=#6881B3;gradientColor=none;gradientDirection=north;strokeWidth=2;shape=mxgraph.networks.desktop_pc;" vertex="1" parent="1">
          <mxGeometry x="910" y="41" width="50" height="90" as="geometry" />
        </mxCell>
        <mxCell id="_C1D_wvhEci5P-4jIthu-8" value="&lt;font&gt;&lt;b style=&quot;font-size: 14px&quot;&gt;ELK Stack&lt;br&gt;&lt;/b&gt;192.168.1.100/24&lt;br&gt;&lt;/font&gt;" style="sketch=0;outlineConnect=0;gradientColor=none;fontColor=#545B64;strokeColor=none;fillColor=#879196;dashed=0;verticalLabelPosition=bottom;verticalAlign=top;align=center;html=1;fontSize=12;fontStyle=0;aspect=fixed;shape=mxgraph.aws4.illustration_desktop;pointerEvents=1" vertex="1" parent="1">
          <mxGeometry x="990" y="40" width="100" height="91" as="geometry" />
        </mxCell>
        <mxCell id="_C1D_wvhEci5P-4jIthu-9" value="&lt;font&gt;&lt;b style=&quot;font-size: 14px&quot;&gt;Kali Linux&lt;/b&gt;&lt;br&gt;&lt;font style=&quot;font-size: 12px&quot;&gt;192.168.1.90/24&lt;br&gt;&lt;/font&gt;&lt;/font&gt;" style="sketch=0;outlineConnect=0;gradientColor=none;fontColor=#545B64;strokeColor=none;fillColor=#879196;dashed=0;verticalLabelPosition=bottom;verticalAlign=top;align=center;html=1;fontSize=12;fontStyle=0;aspect=fixed;shape=mxgraph.aws4.illustration_desktop;pointerEvents=1" vertex="1" parent="1">
          <mxGeometry x="780" y="230" width="100" height="91" as="geometry" />
        </mxCell>
        <mxCell id="_C1D_wvhEci5P-4jIthu-10" value="" style="fontColor=#0066CC;verticalAlign=top;verticalLabelPosition=bottom;labelPosition=center;align=center;html=1;outlineConnect=0;fillColor=#CCCCCC;strokeColor=#6881B3;gradientColor=none;gradientDirection=north;strokeWidth=2;shape=mxgraph.networks.desktop_pc;" vertex="1" parent="1">
          <mxGeometry x="710" y="240" width="50" height="90" as="geometry" />
        </mxCell>
        <mxCell id="_C1D_wvhEci5P-4jIthu-11" value="" style="fontColor=#0066CC;verticalAlign=top;verticalLabelPosition=bottom;labelPosition=center;align=center;html=1;outlineConnect=0;fillColor=#CCCCCC;strokeColor=#6881B3;gradientColor=none;gradientDirection=north;strokeWidth=2;shape=mxgraph.networks.desktop_pc;" vertex="1" parent="1">
          <mxGeometry x="535" y="481" width="50" height="90" as="geometry" />
        </mxCell>
        <mxCell id="_C1D_wvhEci5P-4jIthu-12" value="&lt;font&gt;&lt;span style=&quot;font-size: 14px&quot;&gt;&lt;b&gt;Target 1&lt;br&gt;&lt;/b&gt;&lt;/span&gt;192.168.1.110/24&lt;br&gt;&lt;b&gt;WordPress Host&lt;/b&gt;&lt;br&gt;&lt;br&gt;&lt;/font&gt;" style="sketch=0;outlineConnect=0;gradientColor=none;fontColor=#545B64;strokeColor=none;fillColor=#879196;dashed=0;verticalLabelPosition=bottom;verticalAlign=top;align=center;html=1;fontSize=12;fontStyle=0;aspect=fixed;shape=mxgraph.aws4.illustration_desktop;pointerEvents=1" vertex="1" parent="1">
          <mxGeometry x="610" y="481" width="100" height="91" as="geometry" />
        </mxCell>
        <mxCell id="_C1D_wvhEci5P-4jIthu-13" value="&lt;font&gt;&lt;b&gt;&lt;span style=&quot;font-size: 14px&quot;&gt;Target 2&lt;/span&gt;&lt;font style=&quot;font-size: 12px&quot;&gt;&lt;br&gt;&lt;/font&gt;&lt;/b&gt;&lt;font style=&quot;font-size: 12px&quot;&gt;192.168.1.115/24&lt;/font&gt;&lt;br&gt;&lt;/font&gt;" style="sketch=0;outlineConnect=0;gradientColor=none;fontColor=#545B64;strokeColor=none;fillColor=#879196;dashed=0;verticalLabelPosition=bottom;verticalAlign=top;align=center;html=1;fontSize=12;fontStyle=0;aspect=fixed;shape=mxgraph.aws4.illustration_desktop;pointerEvents=1" vertex="1" parent="1">
          <mxGeometry x="990" y="480" width="100" height="91" as="geometry" />
        </mxCell>
        <mxCell id="_C1D_wvhEci5P-4jIthu-14" value="" style="fontColor=#0066CC;verticalAlign=top;verticalLabelPosition=bottom;labelPosition=center;align=center;html=1;outlineConnect=0;fillColor=#CCCCCC;strokeColor=#6881B3;gradientColor=none;gradientDirection=north;strokeWidth=2;shape=mxgraph.networks.desktop_pc;" vertex="1" parent="1">
          <mxGeometry x="910" y="480" width="50" height="90" as="geometry" />
        </mxCell>
        <mxCell id="_C1D_wvhEci5P-4jIthu-15" value="" style="line;strokeWidth=2;direction=south;html=1;fontSize=12;" vertex="1" parent="1">
          <mxGeometry x="50" y="160" width="10" height="70" as="geometry" />
        </mxCell>
        <mxCell id="_C1D_wvhEci5P-4jIthu-17" value="&lt;b&gt;RDP&lt;/b&gt;" style="line;strokeWidth=2;html=1;fontSize=12;" vertex="1" parent="1">
          <mxGeometry x="90" y="265" width="90" height="10" as="geometry" />
        </mxCell>
        <mxCell id="_C1D_wvhEci5P-4jIthu-18" value="&lt;b&gt;Metricbeat&lt;/b&gt;" style="line;strokeWidth=2;html=1;fontSize=12;" vertex="1" parent="1">
          <mxGeometry x="730" y="100" width="160" height="10" as="geometry" />
        </mxCell>
        <mxCell id="_C1D_wvhEci5P-4jIthu-24" value="" style="endArrow=none;html=1;rounded=0;fontSize=12;" edge="1" parent="1">
          <mxGeometry width="50" height="50" relative="1" as="geometry">
            <mxPoint x="160" y="766" as="sourcePoint" />
            <mxPoint x="160" y="130" as="targetPoint" />
          </mxGeometry>
        </mxCell>
        <mxCell id="_C1D_wvhEci5P-4jIthu-25" value="" style="endArrow=none;html=1;rounded=0;fontSize=12;" edge="1" parent="1">
          <mxGeometry width="50" height="50" relative="1" as="geometry">
            <mxPoint x="160" y="760" as="sourcePoint" />
            <mxPoint x="1162" y="760" as="targetPoint" />
          </mxGeometry>
        </mxCell>
        <mxCell id="_C1D_wvhEci5P-4jIthu-26" value="" style="endArrow=none;html=1;rounded=0;fontSize=12;" edge="1" parent="1">
          <mxGeometry width="50" height="50" relative="1" as="geometry">
            <mxPoint x="1160" y="760" as="sourcePoint" />
            <mxPoint x="1160" y="-120" as="targetPoint" />
          </mxGeometry>
        </mxCell>
        <mxCell id="_C1D_wvhEci5P-4jIthu-27" value="" style="endArrow=none;html=1;rounded=0;fontSize=12;" edge="1" parent="1">
          <mxGeometry width="50" height="50" relative="1" as="geometry">
            <mxPoint x="157" y="-120" as="sourcePoint" />
            <mxPoint x="1160" y="-120" as="targetPoint" />
          </mxGeometry>
        </mxCell>
        <mxCell id="_C1D_wvhEci5P-4jIthu-28" value="" style="endArrow=none;html=1;rounded=0;fontSize=12;" edge="1" parent="1">
          <mxGeometry width="50" height="50" relative="1" as="geometry">
            <mxPoint x="160" y="130" as="sourcePoint" />
            <mxPoint x="160" y="-120" as="targetPoint" />
          </mxGeometry>
        </mxCell>
        <mxCell id="_C1D_wvhEci5P-4jIthu-29" value="" style="endArrow=none;html=1;rounded=0;fontSize=12;" edge="1" parent="1">
          <mxGeometry width="50" height="50" relative="1" as="geometry">
            <mxPoint x="370" y="280" as="sourcePoint" />
            <mxPoint x="420" y="280" as="targetPoint" />
          </mxGeometry>
        </mxCell>
        <mxCell id="_C1D_wvhEci5P-4jIthu-30" value="" style="endArrow=none;html=1;rounded=0;fontSize=12;" edge="1" parent="1">
          <mxGeometry width="50" height="50" relative="1" as="geometry">
            <mxPoint x="430" y="674" as="sourcePoint" />
            <mxPoint x="430" y="210" as="targetPoint" />
          </mxGeometry>
        </mxCell>
        <mxCell id="_C1D_wvhEci5P-4jIthu-31" value="" style="endArrow=none;html=1;rounded=0;fontSize=12;" edge="1" parent="1">
          <mxGeometry width="50" height="50" relative="1" as="geometry">
            <mxPoint x="430" y="680" as="sourcePoint" />
            <mxPoint x="1120" y="680" as="targetPoint" />
          </mxGeometry>
        </mxCell>
        <mxCell id="_C1D_wvhEci5P-4jIthu-32" value="" style="endArrow=none;html=1;rounded=0;fontSize=12;" edge="1" parent="1">
          <mxGeometry width="50" height="50" relative="1" as="geometry">
            <mxPoint x="1120" y="680" as="sourcePoint" />
            <mxPoint x="1120" y="-42" as="targetPoint" />
          </mxGeometry>
        </mxCell>
        <mxCell id="_C1D_wvhEci5P-4jIthu-33" value="" style="endArrow=none;html=1;rounded=0;fontSize=12;" edge="1" parent="1">
          <mxGeometry width="50" height="50" relative="1" as="geometry">
            <mxPoint x="430" y="-40" as="sourcePoint" />
            <mxPoint x="1120" y="-40" as="targetPoint" />
          </mxGeometry>
        </mxCell>
        <mxCell id="_C1D_wvhEci5P-4jIthu-34" value="" style="endArrow=none;html=1;rounded=0;fontSize=12;" edge="1" parent="1">
          <mxGeometry width="50" height="50" relative="1" as="geometry">
            <mxPoint x="430" y="210" as="sourcePoint" />
            <mxPoint x="430" y="-40" as="targetPoint" />
          </mxGeometry>
        </mxCell>
        <mxCell id="_C1D_wvhEci5P-4jIthu-35" value="" style="edgeStyle=segmentEdgeStyle;endArrow=classic;html=1;rounded=0;fontSize=12;" edge="1" parent="1" target="_C1D_wvhEci5P-4jIthu-12">
          <mxGeometry width="50" height="50" relative="1" as="geometry">
            <mxPoint x="700" y="280" as="sourcePoint" />
            <mxPoint x="610" y="460" as="targetPoint" />
            <Array as="points">
              <mxPoint x="610" y="280" />
            </Array>
          </mxGeometry>
        </mxCell>
        <mxCell id="_C1D_wvhEci5P-4jIthu-36" value="" style="edgeStyle=segmentEdgeStyle;endArrow=classic;html=1;rounded=0;fontSize=12;" edge="1" parent="1" target="_C1D_wvhEci5P-4jIthu-12">
          <mxGeometry width="50" height="50" relative="1" as="geometry">
            <mxPoint x="700" y="300" as="sourcePoint" />
            <mxPoint x="700" y="300" as="targetPoint" />
            <Array as="points">
              <mxPoint x="660" y="300" />
            </Array>
          </mxGeometry>
        </mxCell>
      </root>
    </mxGraphModel>
  </diagram>
</mxfile>
